<svg width="32" height="32" viewBox="0 0 32 32" fill="none" xmlns="http://www.w3.org/2000/svg">
<path d="M28 7.97331C23.56 7.53331 19.0933 7.30664 14.64 7.30664C12 7.30664 9.36 7.43997 6.72 7.70664L4 7.97331" stroke="white" stroke-width="2" stroke-linecap="round" stroke-linejoin="round"/>
<path d="M11.3335 6.62669L11.6268 4.88002C11.8402 3.61335 12.0002 2.66669 14.2535 2.66669H17.7468C20.0002 2.66669 20.1735 3.66669 20.3735 4.89335L20.6668 6.62669" stroke="white" stroke-width="2" stroke-linecap="round" stroke-linejoin="round"/>
<path d="M25.1334 12.1867L24.2667 25.6134C24.12 27.7067 24 29.3334 20.28 29.3334H11.72C8.00003 29.3334 7.88003 27.7067 7.73337 25.6134L6.8667 12.1867" stroke="white" stroke-width="2" stroke-linecap="round" stroke-linejoin="round"/>
<path d="M13.7734 22H18.2134" stroke="white" stroke-width="2" stroke-linecap="round" stroke-linejoin="round"/>
<path d="M12.6665 16.6667H19.3332" stroke="white" stroke-width="2" stroke-linecap="round" stroke-linejoin="round"/>
</svg>
