<svg width="62" height="62" viewBox="0 0 62 62" fill="none" xmlns="http://www.w3.org/2000/svg">
<path d="M33.5833 5.16666C33.5833 3.73992 32.4267 2.58332 31 2.58332C29.5733 2.58332 28.4167 3.73992 28.4167 5.16666H33.5833ZM28.4167 56.8333C28.4167 58.2601 29.5733 59.4167 31 59.4167C32.4267 59.4167 33.5833 58.2601 33.5833 56.8333H28.4167ZM28.4167 5.16666V56.8333H33.5833V5.16666H28.4167Z" fill="#D0FD3E"/>
<path d="M56.8335 33.5833C58.2602 33.5833 59.4168 32.4267 59.4168 31C59.4168 29.5733 58.2602 28.4167 56.8335 28.4167L56.8335 33.5833ZM5.16683 28.4167C3.7401 28.4167 2.5835 29.5733 2.5835 31C2.5835 32.4267 3.7401 33.5833 5.16683 33.5833L5.16683 28.4167ZM56.8335 28.4167L5.16683 28.4167L5.16683 33.5833L56.8335 33.5833L56.8335 28.4167Z" fill="#D0FD3E"/>
</svg>
