<svg width="28" height="28" viewBox="0 0 28 28" fill="none" xmlns="http://www.w3.org/2000/svg">
<path d="M3.25298 8.86536H3.63418C5.10179 8.86536 6.30256 10.0661 6.30256 11.5337V24.8757C6.30256 26.3433 5.10179 27.5441 3.63418 27.5441H3.25298C1.78537 27.5441 0.584595 26.3433 0.584595 24.8757V11.5337C0.584595 10.0661 1.78537 8.86536 3.25298 8.86536ZM13.9265 0.860199C15.3941 0.860199 16.5949 2.06097 16.5949 3.52859V24.8757C16.5949 26.3433 15.3941 27.5441 13.9265 27.5441C12.4589 27.5441 11.2581 26.3433 11.2581 24.8757V3.52859C11.2581 2.06097 12.4589 0.860199 13.9265 0.860199ZM24.6001 16.1081C26.0677 16.1081 27.2685 17.3089 27.2685 18.7765V24.8757C27.2685 26.3433 26.0677 27.5441 24.6001 27.5441C23.1325 27.5441 21.9317 26.3433 21.9317 24.8757V18.7765C21.9317 17.3089 23.1325 16.1081 24.6001 16.1081Z" fill="#D0FD3E"/>
</svg>
